<?xml version="1.0" standalone="no"?>
<!DOCTYPE svg PUBLIC "-//W3C//DTD SVG 20010904//EN"
 "http://www.w3.org/TR/2001/REC-SVG-20010904/DTD/svg10.dtd">
<svg version="1.0" xmlns="http://www.w3.org/2000/svg"
 width="341.000000pt" height="235.000000pt" viewBox="0 0 341.000000 235.000000"
 preserveAspectRatio="xMidYMid meet">

<g transform="translate(0.000000,235.000000) scale(0.100000,-0.100000)"
fill="#000000" stroke="none">
<path d="M2099 1986 c-113 -76 -168 -133 -141 -149 4 -3 6 -67 4 -143 l-3
-137 -547 8 c-301 5 -590 9 -642 9 l-95 0 -155 -82 c-155 -82 -215 -124 -207
-145 2 -7 18 -12 36 -12 24 0 30 -3 25 -15 -21 -50 -24 -129 -14 -434 6 -180
8 -342 4 -358 -4 -21 -2 -33 7 -39 31 -20 321 -9 622 23 282 30 327 32 677 32
l375 1 0 -170 c0 -93 4 -176 8 -182 18 -29 57 -14 90 34 95 137 254 341 412
528 98 116 210 248 249 295 39 47 79 93 89 103 60 60 46 187 -34 303 -59 86
-184 218 -301 317 -144 123 -340 276 -353 277 -6 0 -53 -29 -106 -64z m129
-42 c30 -21 28 -28 -12 -42 -19 -7 -51 -24 -72 -38 -33 -23 -43 -25 -78 -18
l-40 9 85 52 c46 29 86 53 89 53 3 0 16 -7 28 -16z m129 -110 c2 -5 -26 -19
-62 -32 -62 -21 -65 -21 -100 -5 -19 9 -35 20 -35 24 0 3 30 20 68 37 l67 30
29 -22 c17 -13 31 -27 33 -32z m77 -63 c11 -18 -101 -50 -125 -35 -7 4 9 14
42 25 64 20 76 22 83 10z m-234 -78 c143 -78 350 -238 498 -385 56 -57 102
-107 102 -113 0 -12 -71 -99 -319 -390 -84 -99 -193 -233 -242 -297 -50 -65
-93 -118 -96 -118 -3 0 -4 48 -1 108 3 59 3 113 1 120 -4 9 -88 12 -376 12
-387 0 -448 -3 -837 -45 -208 -22 -472 -45 -476 -41 -4 2 -24 518 -25 626 -2
177 -12 159 79 144 42 -7 95 -13 116 -13 22 -1 47 -8 57 -17 14 -13 24 -14 46
-6 16 5 52 7 80 5 39 -4 52 -10 56 -24 6 -24 51 -25 107 -3 32 13 57 15 108
10 70 -8 160 -11 584 -21 253 -6 257 -6 270 14 8 14 23 21 44 21 17 0 37 7 44
15 8 10 15 85 21 232 4 120 8 221 9 225 0 11 79 -19 150 -59z m308 15 c7 -7
12 -15 12 -19 0 -11 -90 -30 -111 -24 -30 10 -22 20 29 37 60 20 56 20 70 6z
m82 -78 c0 -5 -13 -10 -29 -10 -16 0 -38 -2 -48 -5 -10 -3 -4 1 12 9 35 18 65
20 65 6z m88 -89 l31 -39 -37 -5 c-44 -5 -57 0 -42 18 14 17 -14 35 -57 36
-23 1 -20 3 17 14 25 7 48 13 51 14 3 1 20 -17 37 -38z m-1865 -48 c4 -3 -24
-16 -61 -28 -37 -12 -91 -34 -118 -49 -37 -20 -62 -26 -90 -24 l-39 3 100 52
c81 42 110 52 151 52 28 1 54 -2 57 -6z m402 -13 l50 0 -55 -24 c-30 -13 -86
-42 -125 -64 -69 -42 -122 -53 -153 -33 -15 9 131 61 171 61 14 0 30 6 36 14
39 47 -109 35 -249 -19 -98 -39 -180 -55 -180 -37 0 13 99 51 155 61 32 5 41
11 43 30 l4 24 126 -6 c70 -4 150 -7 177 -7z m270 -8 c-6 -5 -35 -19 -65 -32
-30 -12 -90 -40 -133 -61 -49 -25 -92 -39 -115 -39 -36 1 -36 1 -17 16 39 31
160 84 217 95 32 7 61 16 64 20 3 5 17 9 32 9 15 0 22 -4 17 -8z m301 -10 c-8
-13 -255 -136 -261 -130 -7 6 114 79 188 113 52 25 82 32 73 17z m992 -44 c32
-47 62 -103 62 -115 0 -4 -31 24 -70 62 -62 62 -67 70 -52 81 25 19 28 18 60
-28z m-1268 -9 c-35 -24 -150 -79 -150 -71 0 4 33 24 73 44 69 35 109 49 77
27z m448 -31 c-3 -32 -4 -33 -58 -36 l-55 -3 49 36 c27 19 54 35 58 35 5 0 8
-15 6 -32z" fill="#ff1f1f"/>
</g>
</svg>
